<?xml version="1.0" encoding="UTF-8"?>
<svg id="Layer_1" data-name="Layer 1" xmlns="http://www.w3.org/2000/svg" viewBox="0 0 64 64">
  <defs>
    <style>
      .cls-1 {
        fill: #010101;
      }

      .cls-1, .cls-2, .cls-3, .cls-4 {
        stroke-width: 0px;
      }

      .cls-3 {
        fill: #c5a02e;
      }

      .cls-4 {
        fill: #604e1f;
      }
    </style>
  </defs>
  <g>
    <g>
      <g>
        <g>
          <path class="cls-1" d="m9.02,30.91c-.56.06-1,.54-1,1.12v6.13c0,.58.44,1.06,1,1.12v-8.37Z"/>
          <rect class="cls-1" x="9.2" y="28.37" width="3.06" height="13.46" rx="1.53" ry="1.53"/>
          <path class="cls-1" d="m7.83,33.28c-.38.11-.65.37-.65.69v2.27c0,.31.27.58.65.69v-3.64Z"/>
        </g>
        <g>
          <path class="cls-1" d="m54.98,30.91c.56.06,1,.54,1,1.12v6.13c0,.58-.44,1.06-1,1.12v-8.37Z"/>
          <rect class="cls-1" x="51.74" y="28.37" width="3.06" height="13.46" rx="1.53" ry="1.53" transform="translate(106.53 70.19) rotate(-180)"/>
          <path class="cls-1" d="m56.17,33.28c.38.11.65.37.65.69v2.27c0,.31-.27.58-.65.69v-3.64Z"/>
        </g>
      </g>
      <g>
        <path class="cls-1" d="m10.18,22.73c-.24,0-.48-.09-.66-.27-.37-.37-.37-.96,0-1.33.11-.11,2.76-2.75,7.51-5.09,2.8-1.38,5.59-2.32,8.77-2.96.51-.1.03.41.13.92.1.51.75.82.24.92-3.07.62-5.63,1.48-8.32,2.81-4.47,2.2-6.98,4.7-7.01,4.73-.18.18-.42.28-.66.28Z"/>
        <path class="cls-1" d="m6.26,35.48s0,0,0,0c-.32,0-.58-.27-.58-.59.02-1.97.17-4.27,1.11-6.4.83-1.87,2.01-3.61,3.51-5.18,2.14-2.23,4.91-4.14,8.24-5.68,2.28-1.06,4.58-1.81,7.03-2.3.32-.06.63.14.69.46s-.14.63-.46.69c-2.36.47-4.57,1.2-6.77,2.22-3.19,1.48-5.84,3.3-7.88,5.43-1.41,1.47-2.51,3.09-3.28,4.84-.85,1.93-.99,4.09-1.01,5.94,0,.32-.27.58-.59.58Z"/>
        <path class="cls-1" d="m53.82,22.73c.24,0,.48-.09.66-.27.37-.37.37-.96,0-1.33-.11-.11-2.76-2.75-7.51-5.09-2.8-1.38-5.59-2.32-8.77-2.96-.51-.1-.04.36-.14.86-.1.51-.74.87-.23.97,3.07.62,5.63,1.48,8.32,2.81,4.47,2.2,6.98,4.7,7.01,4.73.18.18.42.28.66.28Z"/>
        <path class="cls-1" d="m57.74,35.48s0,0,0,0c.32,0,.58-.27.58-.59-.02-1.97-.17-4.27-1.11-6.4-.83-1.87-2.01-3.61-3.51-5.18-2.14-2.23-4.91-4.14-8.24-5.68-2.28-1.06-4.58-1.81-7.03-2.3-.32-.06-.63.14-.69.46s.14.63.46.69c2.36.47,4.57,1.2,6.77,2.22,3.19,1.48,5.84,3.3,7.88,5.43,1.41,1.47,2.51,3.09,3.28,4.84.85,1.93.99,4.09,1.01,5.94,0,.32.27.58.59.58Z"/>
      </g>
    </g>
    <g>
      <g>
        <g>
          <path class="cls-1" d="m29.68,18.55s2.09-2.52.27-3.67c0,0-.09.85-.9.85s-1.49-.57-1.08-1.51c.18-.4.59-.56,1.01-.57.39-.01.83.05,1.17.25.3.17.57.4.79.67.27.32.46.69.57,1.09.15.51.15,1.06.08,1.59-.19,1.37-.41,2.05-.57,2.38s-.26.32-.26.32l-1.06-1.38Z"/>
          <path class="cls-1" d="m34.32,18.55s-2.09-2.52-.27-3.67c0,0,.09.85.9.85s1.49-.57,1.08-1.51c-.18-.4-.59-.56-1.01-.57-.39-.01-.83.05-1.17.25-.3.17-.57.4-.79.67-.27.32-.46.69-.57,1.09-.15.51-.15,1.06-.08,1.59.19,1.37.41,2.05.57,2.38s.26.32.26.32l1.06-1.38Z"/>
        </g>
        <path class="cls-1" d="m33.85,11.46c-.47-.46-.95-.96-1.32-1.46-.38-.5-.53-.96-.53-.96,0,0-.15.45-.53.96-.37.49-.86,1-1.32,1.46-1.01.99-.33,2.34.33,2.41,0,0,.04-1.5,1.52-1.48,1.48-.02,1.52,1.48,1.52,1.48.66-.07,1.34-1.42.33-2.41Z"/>
      </g>
      <path class="cls-1" d="m42.08,11.25s-.47-1.64-2.74-.83c0,0-.03-.1-.03-.11-.07-.21-.19-.4-.33-.56-.24-.28-.54-.45-.87-.61-.67-.33-1.39-.52-2.07-.83-.58-.26-1.16-.58-1.61-1.03-.38-.38-.63-.89-.47-1.43,0,0,.02.67,1.11.62,1.08-.04,1.36-.82,1.33-1.27-.02-.29-.17-1.55-2.5-1.34.07-.16.11-.34.14-.51.04-.28.03-.57-.08-.83-.06-.15-.16-.29-.27-.41-.25-.25-.58-.39-.84-.63-.02-.02-.32-.37-.34-.39-.13-.14-.38-.54-.38-.54v1.83s1.03.13,1.15,1.1c0,0,.05.32-.29.72-.03.04-.06.07-.1.1-.42.32-.66.85-.67,1.4,0,.41.16.84.33,1.16.43.85,1.27,1.47,1.95,2.11.68.64,1.38,1.28,2.01,1.98.53.59,1.11,1.27,1.31,2.06.51,1.95-1.54,3.8-1.54,3.8,0,0-2.59,2.62-3.43,4.32-.84,1.7-.84,2.2-.84,2.2,0,0,0-.5-.84-2.2-.84-1.7-3.43-4.32-3.43-4.32,0,0-2.04-1.85-1.54-3.8.2-.78.78-1.47,1.31-2.06.63-.7,1.33-1.34,2.01-1.98.68-.64,1.52-1.26,1.95-2.11.17-.32.33-.75.33-1.16,0-.55-.25-1.08-.67-1.4-.04-.03-.07-.06-.1-.1-.34-.4-.29-.72-.29-.72.12-.97,1.15-1.1,1.15-1.1V.56s-.25.41-.38.54c-.02.02-.32.37-.34.39-.26.24-.59.38-.84.63-.12.12-.21.25-.27.41-.11.26-.12.55-.08.83.03.17.07.35.14.51-2.33-.21-2.48,1.04-2.5,1.34-.03.45.25,1.22,1.33,1.27,1.08.04,1.11-.62,1.11-.62.16.54-.09,1.05-.47,1.43-.45.45-1.04.77-1.61,1.03-.68.31-1.4.5-2.07.83-.32.16-.63.33-.87.61-.14.17-.26.36-.33.56,0,0-.04.11-.03.11-2.27-.82-2.74.83-2.74.83,2.2.51.87,2.84.87,2.84,0,1.9,2.4,2.81,2.4,2.81,1.48.66,2.64,1.83,2.64,1.83,2.45,2.27,3.47,6.22,3.47,6.22h1.38s1.03-3.95,3.47-6.22c0,0,1.17-1.17,2.64-1.83,0,0,2.4-.91,2.4-2.81,0,0-1.32-2.33.87-2.84Z"/>
    </g>
    <g>
      <g>
        <rect class="cls-4" x="12.95" y="35.95" width="1.18" height="3.03" rx=".59" ry=".59"/>
        <rect class="cls-4" x="24.2" y="35.32" width="1.18" height="4.57" rx=".59" ry=".59"/>
        <rect class="cls-4" x="27.01" y="35.08" width="1.18" height="5.05" rx=".59" ry=".59"/>
        <rect class="cls-4" x="25.61" y="34.82" width="1.18" height="5.58" rx=".59" ry=".59"/>
        <rect class="cls-4" x="14.36" y="35.04" width="1.18" height="5.15" rx=".59" ry=".59"/>
        <rect class="cls-4" x="18.58" y="34.82" width="1.18" height="5.6" rx=".59" ry=".59"/>
        <rect class="cls-4" x="15.77" y="34.23" width="1.18" height="6.78" rx=".59" ry=".59"/>
        <rect class="cls-4" x="17.17" y="32.39" width="1.18" height="10.45" rx=".59" ry=".59"/>
        <rect class="cls-4" x="21.39" y="30.91" width="1.18" height="13.43" rx=".59" ry=".59"/>
        <rect class="cls-4" x="22.8" y="31.7" width="1.18" height="11.83" rx=".59" ry=".59"/>
        <rect class="cls-4" x="19.98" y="32.93" width="1.18" height="9.38" rx=".59" ry=".59"/>
      </g>
      <g>
        <g>
          <path class="cls-4" d="m49.15,30.3c-.08-.01-.16.05-.16.14v9.32c0,.22.18.4.4.4h1.26c.22,0,.4-.18.4-.4v-9.32c0-.09-.08-.15-.16-.14-.14.02-.4.13-.87.13-.44,0-.71-.1-.87-.12Z"/>
          <rect class="cls-3" x="48.99" y="37.73" width="2.06" height=".64"/>
        </g>
        <g>
          <path class="cls-4" d="m46.6,33.68c-.08-.01-.16.05-.16.14v5.94c0,.22.18.4.4.4h1.26c.22,0,.4-.18.4-.4v-5.94c0-.09-.08-.15-.16-.14-.14.02-.4.13-.87.13-.44,0-.71-.1-.87-.12Z"/>
          <rect class="cls-3" x="46.44" y="38.55" width="2.06" height=".44"/>
        </g>
        <g>
          <path class="cls-4" d="m44.06,27.37c-.08-.01-.16.05-.16.14v12.25c0,.22.18.4.4.4h1.26c.22,0,.4-.18.4-.4v-12.25c0-.09-.08-.15-.16-.14-.14.02-.4.13-.87.13-.44,0-.71-.1-.87-.12Z"/>
          <rect class="cls-3" x="43.9" y="29.79" width="2.06" height="2.96"/>
        </g>
        <g>
          <path class="cls-4" d="m41.51,25.66c-.08-.01-.16.05-.16.14v13.96c0,.22.18.4.4.4h1.26c.22,0,.4-.18.4-.4v-13.96c0-.09-.08-.15-.16-.14-.14.02-.4.13-.87.13-.44,0-.71-.1-.87-.12Z"/>
          <rect class="cls-3" x="41.35" y="28.37" width="2.06" height=".62"/>
        </g>
        <g>
          <path class="cls-4" d="m38.97,27.3c-.08-.01-.16.05-.16.14v12.32c0,.22.18.4.4.4h1.26c.22,0,.4-.18.4-.4v-12.32c0-.09-.08-.15-.16-.14-.14.02-.4.13-.87.13-.44,0-.71-.1-.87-.12Z"/>
          <rect class="cls-3" x="38.81" y="30.62" width="2.06" height=".74"/>
          <rect class="cls-3" x="38.81" y="37" width="2.06" height=".74"/>
        </g>
        <g>
          <path class="cls-4" d="m36.42,23.34c-.08-.01-.16.05-.16.14v16.28c0,.22.18.4.4.4h1.26c.22,0,.4-.18.4-.4v-16.28c0-.09-.08-.15-.16-.14-.14.02-.4.13-.87.13-.44,0-.71-.1-.87-.12Z"/>
          <rect class="cls-3" x="36.26" y="26.32" width="2.06" height="4.1"/>
        </g>
        <g>
          <path class="cls-4" d="m33.87,27.05c-.08-.01-.16.05-.16.14v12.57c0,.22.18.4.4.4h1.26c.22,0,.4-.18.4-.4v-12.57c0-.09-.08-.15-.16-.14-.14.02-.4.13-.87.13-.44,0-.71-.1-.87-.12Z"/>
          <rect class="cls-3" x="33.71" y="36.3" width="2.06" height=".92"/>
        </g>
        <g>
          <path class="cls-4" d="m31.33,25.4c-.08-.01-.16.05-.16.14v14.22c0,.22.18.4.4.4h1.26c.22,0,.4-.18.4-.4v-14.22c0-.09-.08-.15-.16-.14-.14.02-.4.13-.87.13-.44,0-.71-.1-.87-.12Z"/>
          <rect class="cls-3" x="31.17" y="28.99" width="2.06" height=".96"/>
          <rect class="cls-3" x="31.17" y="35.99" width="2.06" height=".94"/>
        </g>
        <g>
          <path class="cls-4" d="m28.78,32.27c-.08-.01-.16.05-.16.14v7.34c0,.22.18.4.4.4h1.26c.22,0,.4-.18.4-.4v-7.34c0-.09-.08-.15-.16-.14-.14.02-.4.13-.87.13-.44,0-.71-.1-.87-.12Z"/>
          <rect class="cls-3" x="28.62" y="38.07" width="2.06" height=".55"/>
        </g>
      </g>
    </g>
  </g>
  <g>
    <path class="cls-2" d="m52.75,53.33c-.24-.17-.54-.4-.54-.4-.09-.15-.43-.33-.36-.98,0-.08.1-.44,0-.44-.11,0-.31.55-.36.65-.11.2-.32.71-.33.92-.04.46.03.85.26,1.24.12.2.74,1.21.76,1.36-.27.3-.95.55-1.39.69,0-.06-.02-.09-.03-.12-.27-.71-.96-1.38-1.7-1.42-1.09-.06-1.58,1.6-1.41,2.3.35,1.47,2.68.6,2.95.5.11.25.2.45.19.57-.06,1.13-4.12,4.19-5.74,4.02-1.75-.19-1.82-2.23-1.55-3.78.15-.84-.02-.92-.19-.05-.18.92-.3,1.92-.26,2.41.33,4.27,4.49,2.81,7.34-.42.25-.28.46-.57.58-.87.14-.36.23-.74.27-1.28.01-.2,0-.55-.04-.79.34-.18.7-.4.89-.59.45-.46.72-1.33.57-1.92-.15-.57-.54-1-.69-1.45-.02-.07-.03-.14.01-.17.12-.09.63.24.9.28.15.02.25,0-.1-.25Zm-3.67,2.7c.21.07.45.23.62.37.04.03.08.07.12.1-1.85.39-1.64-.78-.74-.48Z"/>
    <path class="cls-2" d="m50.12,48.58s.58.4.91.63c.24.16.23.22.37.03.15-.21.41-.62.48-.72.06-.09.18-.23.07-.31-.31-.25-.67-.44-.99-.69-.14-.12-.15-.11-.3.09-.16.22-.41.59-.48.68-.07.12-.19.21-.05.3Z"/>
    <path class="cls-2" d="m44.68,53.29c-.12-.99-.56-3.36-.55-4.4.08.03.22.12.37.23.68.51.71.55.35-.24-.46-1-1.13-2.65-1.29-3.1-.01-.04-.04-.1-.06-.14-.13.2-.71.98-.75,1.13.34.19.24.38.28,1.06.16,2.67.2,1.8.53,4.43.19,1.5.38,2.6.56,4.11.19,1.5.33,2.81-.06,4.3-.1.39-.26.86.26.14h0c.65-.89.83-2.6.81-3.44-.05-1.34-.27-2.6-.45-4.08Z"/>
    <path class="cls-2" d="m47.75,49.98c-.63-.04-1.5-.12-1.88-.41-.1-.08-.31-.27-.23-.49.13-.41.45-.95.82-1.46.52-.71,2.19-2.57,3.11-1.52.09.11.28.51.31.52.11.02.77-1.9-.68-2.09-1.79-.23-4.2,3.1-4.03,5.52.14,1.85,3.83.68,4.53,1.73.16.23-.91.93-1.82,1.5-1.55.96-2.97,1.74-5.11,2.01-1.78.22-3.36-.46-4.09-2.23-.39-.91-.35-1.91-.06-3,.3-1.16,1.08-3.67-.01-.7-.24.65-.44,1.4-.54,2.13-.25,1.9.12,3.96,1.98,4.81,1.45.67,3.31.38,4.83-.18,1.07-.4,1.97-.89,3.07-1.69,1.15-.84,2.01-1.74,2.3-2.86.05-.3,0-.74-.19-.95-.52-.59-1.57-.58-2.3-.62Z"/>
    <path class="cls-2" d="m37.46,53.31c-.24-.17-.54-.4-.54-.4-.09-.15-.43-.33-.36-.98,0-.08.1-.44,0-.44-.11,0-.31.55-.36.65-.11.2-.32.71-.33.92-.04.46.03.85.26,1.24.12.2.74,1.21.77,1.36-.27.3-.95.55-1.39.69h0c-.49.17-.98.31-1.3.36.21-.73,1.87-2.43-.47-3.89-2.67-1.67-4.71,1.9-5.62,2.89l-.25.31c-.15-.13-.27-.27-.35-.4-.06-.07-.1-.16-.15-.25-.11-.24-.12-.41-.12-.41,0,0-.06-.45-.14-.55-.2-.19-1.24,1.69-3.02,1.67h0c-1.54-.06-1.19-1.95-2.55-2.06-.49-.04-1.13.18-1.91.57h0c-1.54.81-2.52,1.82-3.59,2.9-1.13,1.14-2.67,2.54-3.49,2.46-2.14-.21-1.21-3.41.93-5.62.17-.18.21-.24.18-.24-.05,0-.3.19-.45.34-.29.28-.52.53-.64.67-1.07,1.22-1.97,3.34-1.31,4.92.37.9,1.05,1.13,1.64,1.03.93-.16,1.93-.98,2.67-1.73,1.26-1.26,2.62-2.42,4.06-3.29.38-.18.74-.32,1.08-.41,1.84-.48,1.29,1.36,2.96,1.77.13.03.27.04.41.05h0c1.25,0,2.26-1.06,2.52-1.37.09-.1.09-.06.12.05.14.46.19.59.42.88-.52,1.11-.7,1.41-.58,1.38.18-.06.88-.86,1-.99,1.01.66,2.42.89,4.06.86,1.46-.03,2.87-.25,3.89-.63h0c.42-.19,1.02-.52,1.29-.79.45-.46.72-1.33.57-1.92-.15-.57-.54-1-.69-1.45-.02-.07-.03-.14.01-.17.12-.09.63.24.9.28.15.02.25,0-.1-.25Zm-7.86,3.41h0s0,0,0,0c-.39-.04-.71-.11-.92-.22-.11-.04-.2-.08-.3-.13l.23-.33s.03-.05.05-.07h0s1.83-2.02,2.82-2.21c1.18-.23,2.31.62,2.81,1.6.48.95-2.82,1.57-4.69,1.37Z"/>
    <path class="cls-2" d="m35.26,61.33c-.31-.25-.67-.44-.99-.69-.14-.12-.15-.11-.3.09-.16.22-.41.59-.48.68-.07.12-.19.21-.05.3.04.03.58.4.91.63.24.16.23.22.37.03.15-.21.41-.62.48-.72.06-.09.18-.23.07-.31Z"/>
    <path class="cls-2" d="m23.44,60.17c-.09-.07-.8-.58-.84-.57-.05.02-.61.86-.69.98-.06.08-.02.11.03.15l1.11.79c.1-.04.56-.8.67-1,.09-.15-.05-.19-.29-.35Z"/>
    <path class="cls-2" d="m20.77,59.87s-.11-.1-.16-.08c-.05.02-.57.81-.68.98-.05.07-.04.11.03.15l1.12.79c.09-.04.5-.71.58-.84.23-.38.18-.21-.89-1Z"/>
    <path class="cls-2" d="m25.42,49.91c.11.1.11.26-.05.5-.35.54-1.34,1.61-1.85,1.99-1.3,1.06-1.62,1.62.25.15.23-.18.49-.39.73-.61.39-.36.75-.78,1.03-1.22.36-.57.83-1.61.58-2.11-.38-.77-2.39.24-3.04.57-.87.44-1.67.83-2.65,1.2-2.08.79-4.43,1.38-5.96,1.16-1.02-.15-1.93-.64-2.29-1.47h0s-.02-.04-.02-.06c-.33-.83.13-1.69.43-2.21.26-.45.32-.64.27-.64-.08,0-.42.39-.75.97-.45.8-.63,1.5-.62,2.12h0c.01.94.39,1.83,1.32,2.39,1.81,1.08,5.68-.03,8.28-1.27,1.12-.53,3.69-2.06,4.34-1.45Z"/>
    <path class="cls-2" d="m18.89,47.23l1.11.79c.1-.04.56-.8.67-1,.09-.15-.05-.19-.29-.35-.09-.07-.8-.58-.84-.57-.05.02-.61.86-.69.98-.06.08-.02.11.03.15Z"/>
    <path class="cls-2" d="m16.9,47.42l1.12.79c.09-.04.5-.71.58-.84.23-.38.18-.21-.89-1-.04-.03-.11-.1-.16-.08-.05.02-.57.81-.68.98-.05.07-.04.11.03.15Z"/>
  </g>
</svg>